<svg width="629" height="654" viewBox="0 0 629 654" fill="none" xmlns="http://www.w3.org/2000/svg">
<path d="M474.47 583.757C472.023 583.757 469.648 582.927 467.734 581.403C465.82 579.878 464.479 577.749 463.932 575.364C463.385 572.979 463.663 570.478 464.721 568.272C465.779 566.065 467.554 564.283 469.757 563.216C479.066 558.729 487.968 553.44 496.362 547.411C498.692 545.854 501.534 545.262 504.291 545.761C507.049 546.259 509.505 547.808 511.142 550.082C512.779 552.355 513.47 555.176 513.068 557.949C512.666 560.722 511.204 563.23 508.989 564.946C499.578 571.696 489.603 577.62 479.173 582.654C477.709 583.372 476.101 583.749 474.47 583.757V583.757Z" fill="#EAEAEA"/>
<path d="M379 606.027C334.098 606.027 290.205 592.712 252.87 567.766C215.536 542.82 186.437 507.363 169.254 465.88C152.071 424.396 147.575 378.748 156.335 334.709C165.095 290.67 186.717 250.218 218.467 218.468C250.218 186.717 290.67 165.095 334.709 156.335C378.748 147.575 424.396 152.071 465.879 169.254C507.363 186.438 542.82 215.536 567.766 252.871C592.712 290.205 606.027 334.098 606.027 379C606.027 382.795 605.908 386.47 605.681 390.265C605.459 393.11 604.139 395.757 602.001 397.645C599.862 399.534 597.072 400.516 594.221 400.384C591.36 400.206 588.687 398.899 586.789 396.75C584.891 394.601 583.925 391.786 584.103 388.924C584.308 385.584 584.405 382.341 584.405 379C584.405 338.375 572.358 298.662 549.788 264.883C527.218 231.104 495.138 204.777 457.605 189.23C420.072 173.684 378.772 169.616 338.927 177.541C299.082 185.467 262.483 205.03 233.756 233.756C205.03 262.483 185.467 299.083 177.541 338.927C169.616 378.772 173.683 420.072 189.23 457.605C204.777 495.138 231.104 527.218 264.883 549.788C298.661 572.359 338.374 584.405 379 584.405C382.243 584.405 385.486 584.308 388.73 584.103C390.149 584.014 391.573 584.206 392.918 584.667C394.264 585.128 395.505 585.85 396.572 586.791C397.638 587.733 398.509 588.875 399.135 590.152C399.76 591.43 400.127 592.818 400.216 594.238C400.305 595.658 400.113 597.081 399.652 598.426C399.19 599.772 398.469 601.014 397.527 602.08C396.586 603.147 395.444 604.018 394.167 604.643C392.889 605.268 391.501 605.636 390.081 605.724C386.373 605.919 382.686 606.027 379 606.027Z" fill="#EAEAEA"/>
<path d="M556.179 513.486C554.188 513.486 552.236 512.937 550.538 511.898C548.84 510.859 547.462 509.372 546.555 507.6C545.648 505.828 545.248 503.84 545.399 501.855C545.55 499.87 546.247 497.966 547.411 496.351C553.426 487.989 558.727 479.136 563.26 469.886C564.541 467.334 566.779 465.393 569.487 464.485C572.194 463.578 575.151 463.779 577.711 465.044C580.271 466.309 582.227 468.535 583.151 471.237C584.075 473.939 583.893 476.897 582.644 479.465C577.582 489.785 571.662 499.661 564.946 508.989C563.946 510.38 562.629 511.513 561.105 512.295C559.58 513.077 557.892 513.485 556.179 513.486Z" fill="#EAEAEA"/>
<path d="M441.4 434.449C439.19 434.447 437.033 433.768 435.22 432.502C433.407 431.237 432.026 429.446 431.263 427.371C430.499 425.297 430.39 423.038 430.95 420.899C431.51 418.761 432.713 416.845 434.395 415.411L477.184 379L434.395 342.589C433.314 341.666 432.425 340.54 431.779 339.273C431.134 338.007 430.744 336.626 430.632 335.209C430.52 333.792 430.688 332.367 431.127 331.015C431.566 329.663 432.267 328.411 433.19 327.33C434.112 326.249 435.239 325.36 436.505 324.714C437.772 324.069 439.153 323.679 440.57 323.567C441.987 323.455 443.412 323.623 444.764 324.062C446.116 324.501 447.368 325.202 448.449 326.124L500.903 370.762C502.097 371.777 503.057 373.039 503.714 374.462C504.372 375.884 504.713 377.433 504.713 379C504.713 380.567 504.372 382.116 503.714 383.538C503.057 384.961 502.097 386.223 500.903 387.238L448.449 431.876C446.482 433.547 443.982 434.46 441.4 434.449V434.449Z" fill="#EAEAEA"/>
<path d="M316.6 434.449C314.03 434.452 311.542 433.54 309.584 431.876L257.13 387.238C255.936 386.223 254.976 384.961 254.318 383.538C253.661 382.116 253.32 380.567 253.32 379C253.32 377.433 253.661 375.884 254.318 374.462C254.976 373.039 255.936 371.777 257.13 370.762L309.584 326.124C311.767 324.261 314.602 323.341 317.463 323.567C320.325 323.793 322.98 325.146 324.843 327.33C326.707 329.513 327.627 332.347 327.401 335.209C327.175 338.071 325.821 340.726 323.638 342.589L280.816 379L323.605 415.411C325.288 416.845 326.49 418.761 327.05 420.899C327.61 423.038 327.501 425.297 326.738 427.371C325.974 429.446 324.593 431.237 322.78 432.502C320.968 433.768 318.811 434.447 316.6 434.449V434.449Z" fill="#EAEAEA"/>
<path d="M342.567 488.027C341.283 488.023 340.009 487.792 338.805 487.346C336.117 486.349 333.936 484.326 332.74 481.721C331.543 479.116 331.431 476.142 332.427 473.454L405.302 277.032C405.799 275.701 406.553 274.481 407.522 273.442C408.49 272.402 409.654 271.564 410.946 270.974C412.239 270.384 413.635 270.055 415.055 270.005C416.475 269.954 417.89 270.184 419.221 270.681C420.552 271.178 421.772 271.932 422.812 272.901C423.851 273.869 424.69 275.033 425.28 276.325C425.869 277.618 426.199 279.014 426.249 280.433C426.299 281.853 426.07 283.269 425.573 284.6L352.697 480.968C351.931 483.038 350.55 484.824 348.739 486.086C346.928 487.348 344.775 488.025 342.567 488.027Z" fill="#EAEAEA"/>
<path d="M425.27 757.378H332.73C327.778 757.342 322.987 755.623 319.142 752.503C315.297 749.384 312.628 745.049 311.573 740.211L301.551 690.189C270.64 682.493 241.057 670.205 213.789 653.735L171.368 681.941C167.241 684.697 162.292 685.95 157.351 685.489C152.41 685.029 147.778 682.882 144.232 679.411L78.8054 613.887C75.2775 610.312 73.0991 605.624 72.6417 600.622C72.1843 595.62 73.4763 590.615 76.2973 586.46L104.405 544.297C87.9012 517.028 75.6215 487.417 67.9837 456.47L17.9189 446.46C13.0555 445.422 8.69127 442.757 5.54655 438.905C2.40183 435.052 0.664595 430.243 0.621582 425.27V332.73C0.657569 327.779 2.37675 322.987 5.49662 319.142C8.61648 315.297 12.9514 312.628 17.7892 311.573L67.9081 301.519C75.5474 270.578 87.8232 240.971 104.319 213.703L76.0594 171.433C73.2976 167.304 72.0415 162.351 72.5022 157.405C72.9629 152.459 75.1123 147.823 78.5892 144.276L144.113 78.7622C147.681 75.2286 152.365 73.0426 157.365 72.5773C162.365 72.112 167.371 73.3963 171.53 76.2109L213.692 104.373C240.978 87.8752 270.588 75.5686 301.53 67.865L311.541 17.919C312.578 13.0556 315.243 8.69139 319.095 5.54667C322.948 2.40195 327.757 0.664717 332.73 0.621704H425.27C430.221 0.657691 435.013 2.37687 438.858 5.49674C442.703 8.61661 445.372 12.9516 446.427 17.7893L456.449 67.8109C487.442 75.4821 517.096 87.798 544.405 104.341L586.568 76.0704C590.696 73.3086 595.649 72.0524 600.595 72.5131C605.541 72.9738 610.177 75.1233 613.724 78.6001L679.249 144.114C682.793 147.675 684.987 152.36 685.453 157.363C685.918 162.366 684.627 167.375 681.8 171.53L653.692 213.789C670.168 241.05 682.456 270.63 690.146 301.541L739.995 311.541C744.874 312.561 749.258 315.219 752.42 319.072C755.582 322.926 757.331 327.745 757.378 332.73V425.27C757.342 430.222 755.623 435.013 752.503 438.858C749.383 442.703 745.049 445.372 740.211 446.427L690.189 456.46C682.499 487.37 670.211 516.95 653.735 544.211L681.951 586.633C684.706 590.76 685.957 595.71 685.495 600.651C685.032 605.592 682.884 610.223 679.411 613.768L613.886 679.292C610.318 682.824 605.634 685.009 600.635 685.474C595.636 685.939 590.63 684.656 586.47 681.843L544.308 653.66C517.016 670.197 487.38 682.513 456.405 690.189L446.459 740.081C445.422 744.945 442.757 749.309 438.905 752.454C435.052 755.598 430.243 757.335 425.27 757.378ZM213.595 630.06C215.618 630.054 217.602 630.624 219.313 631.703C248.135 650.01 279.898 663.209 313.205 670.719C315.243 671.18 317.104 672.222 318.562 673.719C320.02 675.215 321.013 677.102 321.422 679.151L332.741 735.757H425.173L436.611 679.151C437.02 677.101 438.015 675.213 439.475 673.716C440.935 672.22 442.798 671.178 444.838 670.719C478.146 663.247 509.904 650.049 538.697 631.714C540.493 630.618 542.56 630.05 544.663 630.075C546.767 630.1 548.82 630.716 550.589 631.854L598.578 663.962L663.962 598.6L632.438 551.303C632.031 550.81 631.669 550.282 631.357 549.724C630.416 548.034 629.945 546.123 629.995 544.189C630.044 542.255 630.612 540.37 631.638 538.73C649.95 509.911 663.149 478.147 670.654 444.838C671.115 442.8 672.157 440.939 673.654 439.481C675.15 438.023 677.037 437.03 679.086 436.622L735.757 425.26V332.73L679.151 321.378C677.102 320.97 675.215 319.977 673.719 318.519C672.222 317.061 671.18 315.2 670.719 313.162C663.214 279.853 650.015 248.089 631.703 219.27C630.668 217.635 630.091 215.753 630.032 213.819C629.973 211.885 630.434 209.971 631.368 208.276C631.744 207.585 632.197 206.94 632.719 206.351L663.94 159.4L598.589 93.9947L550.632 126.146C548.864 127.286 546.81 127.904 544.707 127.929C542.603 127.954 540.535 127.385 538.741 126.287C509.947 107.951 478.189 94.753 444.881 87.2812C442.841 86.8218 440.978 85.7807 439.518 84.284C438.058 82.7874 437.063 80.8993 436.654 78.8487L425.259 22.2433H332.73L321.389 78.8487C320.981 80.8979 319.988 82.785 318.53 84.2815C317.071 85.778 315.211 86.8199 313.173 87.2812C279.865 94.7915 248.102 107.99 219.281 126.297C217.514 127.416 215.46 127.999 213.368 127.974C211.277 127.949 209.237 127.318 207.497 126.157L159.389 94.0487L93.9946 159.4L126.157 207.487C127.318 209.227 127.949 211.266 127.974 213.358C127.999 215.449 127.416 217.503 126.297 219.27C107.991 248.069 94.8226 279.827 87.3783 313.13C86.9 315.285 85.7734 317.242 84.15 318.738C82.5266 320.234 80.4842 321.197 78.2973 321.497L22.2432 332.741V425.27L78.6648 436.578C80.7727 436.951 82.7241 437.936 84.2756 439.411C85.8272 440.885 86.91 442.784 87.3892 444.87C94.8338 478.173 108.002 509.931 126.308 538.73C127.427 540.495 128.009 542.546 127.986 544.636C127.963 546.725 127.335 548.763 126.178 550.503L94.1783 598.6L159.422 664.016L206.719 632.47C208.663 630.912 211.081 630.061 213.573 630.06H213.595Z" fill="#EAEAEA"/>
</svg>
