<svg width="170" height="20" viewBox="0 0 170 20" fill="none" xmlns="http://www.w3.org/2000/svg">
<path d="M9.376 9.688C10.304 10.12 11.024 10.688 11.536 11.392C12.064 12.08 12.328 12.88 12.328 13.792C12.328 15.584 11.736 16.904 10.552 17.752C9.384 18.584 7.92 19 6.16 19H0.28V1.336H5.464C7.336 1.336 8.808 1.72 9.88 2.488C10.952 3.24 11.488 4.336 11.488 5.776C11.488 6.656 11.304 7.432 10.936 8.104C10.568 8.76 10.048 9.288 9.376 9.688ZM3.76 8.56H5.872C6.512 8.56 7.008 8.368 7.36 7.984C7.712 7.584 7.888 7.096 7.888 6.52C7.888 5.928 7.688 5.48 7.288 5.176C6.888 4.856 6.336 4.696 5.632 4.696H3.76V8.56ZM5.992 15.76C6.808 15.76 7.464 15.6 7.96 15.28C8.472 14.944 8.728 14.448 8.728 13.792C8.728 12.544 7.736 11.92 5.752 11.92H3.76V15.76H5.992ZM34.0351 19H30.5551V11.824H22.6591V19H19.1791V1.336H22.6591V8.464H30.5551V1.336H34.0351V19ZM51.4733 19L47.7533 13.384H45.4253V19H41.9453V1.336H47.2973C49.4893 1.336 51.1853 1.872 52.3853 2.944C53.6013 4 54.2093 5.448 54.2093 7.288C54.2093 8.376 53.9773 9.4 53.5133 10.36C53.0653 11.304 52.3693 12.048 51.4253 12.592L55.5293 19H51.4733ZM45.4253 10.024H47.8973C48.8413 10.024 49.5293 9.752 49.9613 9.208C50.3933 8.648 50.6093 8.048 50.6093 7.408C50.6093 6.768 50.4253 6.16 50.0573 5.584C49.6893 4.992 48.9773 4.696 47.9213 4.696H45.4253V10.024ZM60.0691 10.192C60.0691 8.592 60.4691 7.096 61.2691 5.704C62.0851 4.312 63.1811 3.208 64.5571 2.392C65.9491 1.56 67.4531 1.144 69.0691 1.144C70.6851 1.144 72.1811 1.56 73.5571 2.392C74.9491 3.208 76.0531 4.312 76.8691 5.704C77.7011 7.096 78.1171 8.592 78.1171 10.192C78.1171 11.824 77.7011 13.328 76.8691 14.704C76.0531 16.08 74.9491 17.176 73.5571 17.992C72.1811 18.792 70.6851 19.192 69.0691 19.192C67.4371 19.192 65.9331 18.792 64.5571 17.992C63.1811 17.176 62.0851 16.08 61.2691 14.704C60.4691 13.328 60.0691 11.824 60.0691 10.192ZM63.6691 10.192C63.6691 11.216 63.9091 12.16 64.3891 13.024C64.8851 13.888 65.5491 14.576 66.3811 15.088C67.2291 15.584 68.1651 15.832 69.1891 15.832C70.1811 15.832 71.0851 15.584 71.9011 15.088C72.7171 14.576 73.3571 13.896 73.8211 13.048C74.2851 12.184 74.5171 11.232 74.5171 10.192C74.5171 9.136 74.2771 8.176 73.7971 7.312C73.3171 6.448 72.6611 5.768 71.8291 5.272C71.0131 4.76 70.1011 4.504 69.0931 4.504C68.0851 4.504 67.1651 4.76 66.3331 5.272C65.5171 5.768 64.8691 6.448 64.3891 7.312C63.9091 8.176 63.6691 9.136 63.6691 10.192ZM103.139 0.615999V19H99.6586V10.576L93.8986 18.76H93.8506L88.3066 11.104V19H84.9466V0.615999H84.9706L93.9226 13.312L103.091 0.615999H103.139ZM119.8 15.544H113.944L112.504 19H109.072L117.04 0.639999H117.232L125.2 19H121.168L119.8 15.544ZM118.648 12.616L116.944 8.32L115.168 12.616H118.648ZM128.86 10.192C128.86 8.592 129.26 7.096 130.06 5.704C130.876 4.312 131.972 3.208 133.348 2.392C134.74 1.56 136.244 1.144 137.86 1.144C139.476 1.144 140.972 1.56 142.348 2.392C143.74 3.208 144.844 4.312 145.66 5.704C146.492 7.096 146.908 8.592 146.908 10.192C146.908 11.824 146.492 13.328 145.66 14.704C144.844 16.08 143.74 17.176 142.348 17.992C140.972 18.792 139.476 19.192 137.86 19.192C136.228 19.192 134.724 18.792 133.348 17.992C131.972 17.176 130.876 16.08 130.06 14.704C129.26 13.328 128.86 11.824 128.86 10.192ZM132.46 10.192C132.46 11.216 132.7 12.16 133.18 13.024C133.676 13.888 134.34 14.576 135.172 15.088C136.02 15.584 136.956 15.832 137.98 15.832C138.972 15.832 139.876 15.584 140.692 15.088C141.508 14.576 142.148 13.896 142.612 13.048C143.076 12.184 143.308 11.232 143.308 10.192C143.308 9.136 143.068 8.176 142.588 7.312C142.108 6.448 141.452 5.768 140.62 5.272C139.804 4.76 138.892 4.504 137.884 4.504C136.876 4.504 135.956 4.76 135.124 5.272C134.308 5.768 133.66 6.448 133.18 7.312C132.7 8.176 132.46 9.136 132.46 10.192ZM169.65 1.336V19.72H169.554L157.194 8.56L157.266 19H153.738V0.639999H153.882L166.218 11.968L166.146 1.336H169.65Z" fill="white"/>
</svg>
