<?xml version="1.0" standalone="no"?>
<!DOCTYPE svg PUBLIC "-//W3C//DTD SVG 20010904//EN"
 "http://www.w3.org/TR/2001/REC-SVG-20010904/DTD/svg10.dtd">
<svg version="1.0" xmlns="http://www.w3.org/2000/svg"
 width="936.000000pt" height="936.000000pt" viewBox="0 0 936.000000 936.000000"
 preserveAspectRatio="xMidYMid meet">
<metadata>
Created by potrace 1.14, written by Peter Selinger 2001-2017
</metadata>
<g transform="translate(0.000000,936.000000) scale(0.100000,-0.100000)"
fill="#000000" stroke="none">
<path d="M2157 9004 c-3 -4 -161 -6 -350 -7 l-345 0 2 -3496 c1 -3488 1 -3496
21 -3497 11 -1 25 -3 30 -4 6 -1 14 -2 20 0 5 1 33 1 62 0 50 -1 65 -1 96 1 6
0 38 -1 69 -2 32 -2 60 0 63 3 3 3 22 2 43 -1 20 -4 46 -6 57 -5 11 2 32 3 48
3 15 1 39 1 55 2 15 0 34 0 42 0 8 -1 26 -1 40 0 14 0 32 0 40 0 19 -2 59 0
85 3 11 1 32 -1 47 -5 15 -4 30 -4 32 0 3 4 19 6 36 3 l30 -4 0 73 c0 41 1
1422 1 3069 0 2456 2 2990 13 2965 7 -16 36 -93 65 -170 29 -77 56 -149 61
-160 5 -11 27 -72 50 -135 23 -63 46 -124 51 -135 4 -11 22 -58 40 -105 17
-47 35 -94 39 -105 19 -48 35 -90 35 -95 1 -3 8 -21 17 -40 8 -19 20 -53 27
-75 7 -22 21 -58 30 -80 10 -22 26 -65 36 -95 10 -30 20 -59 24 -65 3 -5 6
-12 6 -15 1 -3 9 -22 18 -44 9 -21 17 -44 17 -50 0 -7 9 -31 20 -54 11 -22 20
-47 20 -55 0 -7 4 -17 10 -23 5 -5 11 -18 13 -29 2 -11 11 -37 20 -59 9 -21
17 -42 17 -47 0 -5 4 -17 10 -27 5 -9 43 -107 84 -217 41 -110 84 -225 96
-255 12 -30 23 -62 25 -70 2 -8 27 -76 55 -150 29 -74 70 -184 93 -245 22 -60
44 -114 49 -120 4 -5 8 -18 8 -30 0 -12 5 -26 10 -31 6 -6 12 -19 15 -30 4
-20 189 -514 205 -549 5 -11 19 -49 31 -85 12 -36 26 -69 29 -75 10 -15 55
-149 52 -157 -1 -5 3 -8 8 -8 6 0 10 -6 10 -14 0 -12 12 -47 65 -181 4 -11 9
-24 11 -30 4 -15 163 -437 173 -460 5 -11 14 -33 19 -50 6 -16 14 -39 18 -50
4 -11 30 -81 59 -155 l51 -135 474 0 474 0 31 75 c17 41 32 77 32 80 7 24 136
367 150 397 8 17 16 40 18 50 2 10 4 19 5 21 2 1 3 5 4 10 1 4 19 52 41 107
22 55 40 105 41 110 2 10 37 104 53 140 5 11 14 36 21 55 7 19 16 44 21 55 13
31 51 129 54 140 1 6 5 17 8 25 7 16 45 118 82 220 13 36 38 101 55 145 17 44
33 85 34 90 4 14 15 43 36 95 10 25 44 115 75 200 31 85 60 164 65 175 5 11
46 119 91 240 45 121 86 231 92 245 6 14 11 30 13 35 1 6 8 24 15 40 7 17 13
32 14 35 4 10 17 46 25 65 4 11 40 108 80 215 39 107 75 204 80 215 5 11 36
94 70 185 33 91 64 174 69 185 24 54 54 139 54 151 0 8 4 14 9 14 4 0 8 6 8
13 0 6 15 52 34 100 19 48 35 88 35 90 0 1 4 15 10 30 6 16 11 31 11 34 0 3 6
19 14 36 8 18 31 77 51 132 20 55 42 106 47 113 6 6 8 12 5 12 -3 0 12 46 34
102 21 57 39 109 39 115 0 7 4 13 8 13 5 0 9 6 9 13 1 13 61 175 63 167 1 -3
1 -1381 2 -3063 0 -1709 4 -3060 9 -3063 5 -2 37 -5 71 -4 35 0 72 0 83 0 11
0 31 0 45 1 14 0 32 0 40 0 8 -1 26 -1 40 0 14 0 31 0 38 0 16 -1 32 -1 90 -1
26 0 71 -1 100 -2 28 -2 52 0 52 3 0 4 18 3 39 -1 22 -4 45 -4 52 1 7 4 22 4
33 -1 12 -4 30 -4 41 0 11 4 32 4 46 0 15 -4 32 -4 39 0 7 4 24 4 39 0 14 -4
35 -4 46 0 20 8 20 9 19 3496 -1 1919 -2 3492 -3 3496 0 4 -135 7 -298 7 -164
-1 -302 0 -308 1 -5 1 -14 1 -20 0 -26 -6 -97 -4 -102 3 -2 4 -9 4 -15 1 -15
-10 -99 -11 -105 -1 -2 4 -9 4 -15 1 -15 -10 -99 -11 -105 -1 -2 4 -9 4 -15 0
-7 -3 -103 -6 -214 -5 -192 1 -222 -3 -222 -28 -1 -3 -5 -16 -10 -30 -49 -131
-82 -220 -93 -245 -7 -16 -13 -32 -14 -35 -5 -19 -19 -60 -30 -85 -18 -42 -68
-176 -98 -260 -24 -68 -36 -97 -63 -162 -8 -17 -14 -36 -14 -42 0 -6 -4 -19
-9 -29 -9 -16 -83 -208 -114 -297 -8 -22 -43 -114 -77 -205 -35 -91 -80 -212
-101 -270 -22 -58 -43 -114 -48 -125 -5 -11 -19 -47 -31 -80 -12 -33 -32 -87
-45 -120 -13 -33 -64 -170 -114 -305 -51 -135 -96 -254 -101 -265 -9 -21 -97
-254 -137 -365 -13 -36 -28 -74 -33 -85 -5 -11 -18 -47 -30 -80 -11 -33 -23
-67 -27 -75 -3 -8 -14 -35 -23 -60 -9 -25 -92 -245 -185 -490 -92 -245 -192
-510 -222 -590 -29 -80 -58 -154 -63 -165 -9 -19 -57 -149 -82 -222 -6 -18
-14 -33 -18 -33 -3 0 -48 111 -99 248 -50 136 -105 281 -121 322 -16 41 -106
282 -201 535 -94 253 -176 471 -182 485 -6 14 -11 30 -13 35 -1 6 -27 75 -57
155 -31 80 -164 435 -297 790 -132 355 -245 654 -250 665 -11 26 -64 169 -65
175 0 3 -6 19 -12 35 -7 17 -44 116 -83 220 -40 105 -88 233 -108 285 -20 52
-37 98 -38 103 -1 4 -3 9 -4 12 -1 3 -3 8 -5 13 -1 4 -5 16 -10 27 -26 66 -79
206 -91 240 -7 22 -31 87 -54 145 -23 58 -43 110 -44 115 -2 6 -6 17 -9 25 -3
8 -13 36 -22 62 -10 26 -25 50 -34 52 -9 3 -92 5 -186 5 -93 0 -174 0 -180 1
-5 1 -14 1 -20 0 -23 -5 -293 -2 -302 3 -6 4 -13 4 -16 1z"/>
</g>
</svg>
