<?xml version="1.0" standalone="no"?>
<!DOCTYPE svg PUBLIC "-//W3C//DTD SVG 20010904//EN"
 "http://www.w3.org/TR/2001/REC-SVG-20010904/DTD/svg10.dtd">
<svg version="1.0" xmlns="http://www.w3.org/2000/svg"
 width="700.000000pt" height="700.000000pt" viewBox="0 0 700.000000 700.000000"
 preserveAspectRatio="xMidYMid meet">
<metadata>
Created by potrace 1.14, written by Peter Selinger 2001-2017
</metadata>
<g transform="translate(0.000000,700.000000) scale(0.100000,-0.100000)"
fill="#000000" stroke="none">
<path d="M6240 6985 c-180 -41 -235 -85 -580 -454 -238 -255 -263 -281 -277
-281 -8 0 -67 16 -131 36 -64 20 -130 40 -147 44 -16 4 -212 63 -435 130 -223
67 -432 130 -465 139 -33 10 -208 62 -388 116 l-328 99 -210 -210 c-258 -257
-284 -301 -254 -430 17 -75 64 -135 138 -174 54 -29 876 -481 1072 -590 17 -9
78 -43 138 -75 59 -32 106 -62 105 -66 -6 -15 -183 -207 -192 -208 -5 -1 -59
28 -120 64 -355 206 -750 329 -1161 362 -173 13 -464 5 -600 -17 -33 -6 -73
-12 -90 -15 -43 -7 -59 -10 -181 -39 -768 -184 -1424 -702 -1784 -1407 -104
-204 -193 -446 -236 -644 -7 -32 -42 -226 -48 -265 -27 -179 -27 -500 0 -715
8 -67 52 -284 73 -360 113 -415 337 -819 636 -1143 74 -80 226 -224 280 -265
5 -4 24 -19 40 -33 53 -45 307 -210 395 -257 245 -131 516 -225 810 -282 45
-9 164 -26 235 -33 142 -14 525 -6 635 13 33 6 75 13 125 20 22 4 76 15 120
25 448 107 837 305 1182 603 394 339 695 820 841 1342 32 115 68 290 78 378 3
29 7 66 9 82 3 17 7 91 10 165 3 74 7 165 10 201 3 36 1 85 -4 110 -13 58 -19
93 -26 157 -8 74 -32 202 -57 297 -11 44 -21 87 -23 95 -2 8 -20 65 -40 125
-79 230 -190 455 -318 644 l-50 74 39 35 c21 19 67 61 103 93 l64 59 141 -257
c78 -142 158 -287 178 -323 19 -36 44 -81 55 -100 11 -19 102 -186 203 -370
101 -184 195 -346 209 -359 14 -13 50 -35 79 -49 45 -20 65 -24 116 -20 34 3
79 14 100 25 20 10 133 115 251 231 209 209 213 213 205 245 -8 31 -322 1082
-359 1202 -49 154 -201 673 -201 682 0 6 19 27 43 48 23 20 74 67 113 104 39
36 131 122 204 191 74 69 159 150 191 181 160 156 227 380 178 599 -28 127
-140 281 -253 349 -98 59 -179 83 -291 86 -57 2 -124 -2 -155 -10z m235 -354
c85 -38 135 -120 135 -220 0 -79 -42 -161 -118 -232 -31 -29 -91 -85 -132
-123 -42 -39 -134 -125 -204 -191 -144 -134 -174 -163 -270 -252 -36 -35 -66
-69 -66 -77 0 -8 24 -94 54 -193 30 -98 118 -392 196 -653 77 -261 181 -608
231 -771 l89 -296 -80 -82 c-44 -44 -84 -81 -88 -81 -4 0 -40 60 -80 133 -126
232 -218 398 -286 520 -34 61 -413 750 -454 825 -19 35 -44 82 -57 104 l-23
41 -53 -49 c-30 -27 -58 -53 -65 -59 -6 -5 -59 -55 -119 -110 -59 -55 -119
-111 -134 -124 -14 -13 -73 -68 -131 -121 -210 -194 -329 -303 -365 -334 -16
-15 -71 -47 -121 -73 l-90 -46 17 -71 c9 -39 49 -194 88 -345 40 -151 69 -281
67 -288 -9 -23 -25 -14 -44 25 -10 20 -75 150 -145 289 -166 330 -147 311
-520 501 -155 79 -285 147 -289 150 -3 4 -1 12 6 18 8 8 99 -12 330 -72 175
-45 331 -84 345 -87 24 -4 29 3 74 92 26 53 66 116 89 141 22 25 86 94 142
154 55 59 103 112 106 116 3 4 55 61 116 126 61 66 164 177 230 249 65 71 133
145 151 164 l31 35 -22 11 c-13 7 -52 28 -87 47 -86 48 -731 403 -794 438
-350 193 -582 320 -636 349 -37 20 -68 41 -68 46 -2 10 147 165 158 165 8 0
163 -45 411 -120 113 -34 311 -93 440 -132 129 -39 249 -74 265 -78 17 -5 68
-20 115 -35 47 -14 92 -28 100 -30 21 -5 112 -33 360 -109 l215 -65 68 72 c88
92 285 301 316 336 67 73 260 278 291 308 85 85 203 109 305 64z m-3415 -1494
c14 -3 45 -8 70 -11 53 -7 99 -15 120 -21 8 -2 31 -7 50 -10 91 -16 296 -81
440 -140 78 -32 245 -119 279 -144 l25 -19 -48 -53 c-27 -30 -54 -54 -60 -54
-6 -1 -29 5 -51 11 -22 7 -148 40 -280 74 -132 34 -248 63 -257 66 -20 6 -279
-246 -324 -315 -26 -39 -29 -53 -29 -120 1 -145 12 -154 430 -366 193 -98 360
-187 372 -198 12 -11 42 -59 66 -106 24 -47 103 -205 176 -351 74 -146 146
-276 160 -289 70 -64 179 -83 265 -47 37 15 349 314 341 326 -2 4 -6 17 -9 31
-7 32 -12 53 -30 119 -8 30 -38 145 -66 255 -29 110 -54 203 -56 206 -4 6 109
110 126 117 10 4 102 -145 162 -263 141 -276 228 -580 253 -886 l6 -67 -43
-37 c-36 -30 -349 -225 -363 -225 -12 0 -221 -132 -295 -186 -159 -116 -264
-249 -297 -374 l-17 -70 -51 0 c-374 -2 -483 -20 -585 -98 -29 -22 -45 -27
-90 -26 -63 0 -170 45 -256 107 -33 24 -79 44 -125 57 -41 10 -64 20 -51 21
12 1 25 2 30 3 12 3 95 15 147 22 187 24 451 152 569 278 77 82 105 188 71
268 -19 47 -71 97 -135 132 -214 114 -408 346 -501 598 -55 151 -62 191 -65
383 -1 99 -4 189 -7 200 -36 146 -80 211 -172 254 -41 19 -167 46 -265 56 -83
9 -102 13 -172 35 -86 27 -133 59 -132 90 1 37 13 149 19 174 2 11 7 37 9 56
21 152 37 243 51 285 27 81 75 169 118 219 l39 47 207 -5 c113 -2 217 -7 231
-9z m-924 -150 c-26 -80 -31 -101 -46 -213 -5 -39 -16 -118 -25 -175 -59 -381
9 -521 308 -634 99 -37 183 -55 337 -71 87 -9 81 6 79 -187 -2 -158 0 -181 25
-274 48 -187 109 -332 199 -478 93 -152 243 -318 365 -403 17 -13 32 -27 32
-32 0 -5 -33 -24 -72 -43 -71 -34 -167 -59 -278 -71 -213 -25 -339 -88 -416
-209 -129 -201 -67 -398 146 -465 37 -12 63 -17 144 -28 31 -4 70 -19 105 -42
210 -135 420 -179 573 -122 30 11 77 36 103 55 60 42 78 45 335 49 174 3 215
7 270 25 118 37 186 120 197 239 3 31 14 73 23 93 25 48 100 120 185 176 39
26 88 59 110 73 22 15 103 62 180 105 77 43 144 80 148 83 25 13 -33 -263 -92
-444 -85 -261 -202 -483 -375 -714 -86 -115 -300 -332 -416 -422 -249 -193
-531 -338 -800 -413 -3 -1 -25 -7 -50 -14 -25 -7 -52 -15 -60 -16 -8 -2 -37
-9 -65 -15 -72 -17 -97 -21 -215 -36 -170 -22 -472 -22 -600 0 -14 3 -38 7
-55 9 -249 38 -547 133 -734 236 l-49 26 82 86 c101 106 208 246 243 319 23
49 26 65 26 180 0 190 -3 230 -19 289 -21 74 -80 199 -148 311 l-57 95 48 145
c59 179 63 244 20 331 -45 93 -112 158 -317 309 -19 14 -44 34 -55 45 -68 65
-124 90 -192 86 -43 -2 -107 -26 -145 -52 l-31 -22 7 59 c3 32 9 73 12 89 4
17 7 57 7 91 2 180 -182 320 -570 433 l-72 21 35 98 c46 127 57 154 129 297
247 491 671 889 1180 1109 89 39 317 117 323 112 1 -2 -8 -37 -22 -79z m-1606
-1911 c45 -15 122 -45 171 -67 76 -36 87 -44 83 -63 -14 -63 -19 -122 -18
-221 0 -138 22 -201 95 -276 59 -60 121 -90 193 -91 60 -2 98 11 174 59 29 18
55 33 57 33 9 0 169 -124 207 -160 l37 -35 -46 -135 c-72 -210 -69 -297 12
-405 56 -73 157 -278 161 -325 1 -19 3 -74 4 -123 l2 -87 -50 -68 c-78 -105
-121 -177 -152 -253 -16 -39 -31 -73 -34 -76 -15 -16 -231 160 -355 289 -173
180 -310 373 -420 592 -69 136 -75 149 -115 256 -25 68 -82 257 -90 300 -3 14
-10 51 -16 82 -11 57 -13 69 -27 183 -10 78 -10 429 0 523 9 86 15 105 32 99
6 -3 49 -17 95 -31z"/>
</g>
</svg>
